<svg id="Layer_1" data-name="Layer 1" xmlns="http://www.w3.org/2000/svg" viewBox="0 0 1282 466"><defs><style>.cls-1{fill:#465a5a;}.cls-2{fill:#b7d4d5;}.cls-3{fill:#15bfe2;}</style></defs><title>backbone</title><path class="cls-1" d="M221.2,207.94a43,43,0,0,1,15.36,17.22A54.19,54.19,0,0,1,242.15,250a55.23,55.23,0,0,1-5.59,25,42.73,42.73,0,0,1-15.36,17.4,39.17,39.17,0,0,1-21.47,6.21,37.31,37.31,0,0,1-17.22-4.08,40.33,40.33,0,0,1-13-10.12v5.15a8.33,8.33,0,0,1-2.39,6,8.67,8.67,0,0,1-12.07.09,8.29,8.29,0,0,1-2.4-6.12V174a8.45,8.45,0,0,1,2.31-6.12,8,8,0,0,1,6-2.4,8.14,8.14,0,0,1,6.13,2.49,8.35,8.35,0,0,1,2.39,6v43.31a35.56,35.56,0,0,1,12.43-11,34.85,34.85,0,0,1,17.39-4.61A39.79,39.79,0,0,1,221.2,207.94Zm-9,70.73a29.09,29.09,0,0,0,10.21-11.89A38.18,38.18,0,0,0,226,250a37.65,37.65,0,0,0-3.64-16.69,28.57,28.57,0,0,0-10.21-11.71,26.49,26.49,0,0,0-14.73-4.26,26.8,26.8,0,0,0-14.91,4.26,28.6,28.6,0,0,0-10.2,11.62A37.39,37.39,0,0,0,168.67,250a37.89,37.89,0,0,0,3.64,16.86,29.12,29.12,0,0,0,10.2,11.8A26.4,26.4,0,0,0,197.42,283,26.09,26.09,0,0,0,212.15,278.67Z"/><path class="cls-1" d="M343.23,205a8.51,8.51,0,0,1,2.39,6.3v77a8.37,8.37,0,0,1-2.39,6,8.12,8.12,0,0,1-6.12,2.48,8,8,0,0,1-6-2.39,8.47,8.47,0,0,1-2.31-6.13v-4.61a38,38,0,0,1-12.6,10.56,35.41,35.41,0,0,1-17.22,4.35A40.28,40.28,0,0,1,277,292.43a42.67,42.67,0,0,1-15.44-17.31,58.41,58.41,0,0,1,0-49.87,42.85,42.85,0,0,1,15.36-17.31,39.17,39.17,0,0,1,21.47-6.21,39.65,39.65,0,0,1,17.48,3.9,36.23,36.23,0,0,1,12.87,9.94v-4.26a8.78,8.78,0,0,1,2.31-6.21,7.88,7.88,0,0,1,6-2.48A8.32,8.32,0,0,1,343.23,205Zm-27.51,73.75a28.71,28.71,0,0,0,10.11-11.71,37.9,37.9,0,0,0,3.64-16.87,37.47,37.47,0,0,0-3.64-16.68,29.37,29.37,0,0,0-10.11-11.8,26,26,0,0,0-14.82-4.35,26.32,26.32,0,0,0-14.82,4.26A28.73,28.73,0,0,0,276,233.32a40.89,40.89,0,0,0,0,33.73,28.73,28.73,0,0,0,10.12,11.71,27.91,27.91,0,0,0,29.64,0Z"/><path class="cls-1" d="M434.46,206.17q9.32,4.44,9.32,11.36a8.35,8.35,0,0,1-1.95,5.41,6.15,6.15,0,0,1-5,2.4,7.8,7.8,0,0,1-3.63-.71,41.31,41.31,0,0,1-3.64-2.31,19.54,19.54,0,0,0-3.37-2.49,23.22,23.22,0,0,0-6-1.77,40.28,40.28,0,0,0-7.1-.71,31.12,31.12,0,0,0-16.33,4.26,29,29,0,0,0-11,11.8,35.86,35.86,0,0,0-3.91,16.77,36.41,36.41,0,0,0,3.82,16.87,28.87,28.87,0,0,0,10.74,11.71A29.5,29.5,0,0,0,412.18,283c6.16,0,11.12-.95,14.91-2.84a33.63,33.63,0,0,0,3.38-2.31,21.77,21.77,0,0,1,3.1-2.13,7,7,0,0,1,3.28-.71,7.25,7.25,0,0,1,5.6,2.22,8.23,8.23,0,0,1,2,5.77q0,3.74-4.71,7.37a37.72,37.72,0,0,1-12.6,5.94,60.07,60.07,0,0,1-16.95,2.31,44.63,44.63,0,0,1-23.78-6.3,42.18,42.18,0,0,1-15.89-17.4A54.28,54.28,0,0,1,365,250.18a52.16,52.16,0,0,1,5.86-24.76A43.59,43.59,0,0,1,387.16,208a45.57,45.57,0,0,1,24-6.3Q425.13,201.73,434.46,206.17Z"/><path class="cls-1" d="M540.51,288.34a7.59,7.59,0,0,1-2.75,6,8.7,8.7,0,0,1-5.77,2.4,7.59,7.59,0,0,1-6.21-2.84l-35-37.1-10.65,9.59v22a8.41,8.41,0,0,1-2.39,6,7.92,7.92,0,0,1-5.95,2.48,8.09,8.09,0,0,1-6.12-2.48,8.38,8.38,0,0,1-2.4-6V174a8.35,8.35,0,0,1,2.4-6,8.1,8.1,0,0,1,6.12-2.49,7.93,7.93,0,0,1,5.95,2.49,8.39,8.39,0,0,1,2.39,6V246.1l43.49-39.93a9.33,9.33,0,0,1,6.21-2.67,7.51,7.51,0,0,1,5.5,2.58,7.73,7.73,0,0,1,2.49,5.41q0,3.56-3.38,6.39l-30.7,27.33,34.08,36.92A9,9,0,0,1,540.51,288.34Z"/><path class="cls-1" d="M628,207.94a43,43,0,0,1,15.36,17.22A54.19,54.19,0,0,1,649,250a55.23,55.23,0,0,1-5.59,25A42.73,42.73,0,0,1,628,292.43a39.19,39.19,0,0,1-21.47,6.21,37.28,37.28,0,0,1-17.22-4.08,40.12,40.12,0,0,1-13-10.12v5.15a8.37,8.37,0,0,1-2.39,6,8.14,8.14,0,0,1-6.13,2.49,8,8,0,0,1-5.94-2.4,8.29,8.29,0,0,1-2.4-6.12V174a8.45,8.45,0,0,1,2.31-6.12,8,8,0,0,1,6-2.4A8.14,8.14,0,0,1,574,168a8.39,8.39,0,0,1,2.39,6v43.31a35.56,35.56,0,0,1,12.43-11,34.85,34.85,0,0,1,17.39-4.61A39.81,39.81,0,0,1,628,207.94Zm-9,70.73a29.09,29.09,0,0,0,10.21-11.89A38.18,38.18,0,0,0,632.8,250a37.64,37.64,0,0,0-3.63-16.69A28.57,28.57,0,0,0,619,221.61a26.49,26.49,0,0,0-14.73-4.26,26.78,26.78,0,0,0-14.91,4.26,28.7,28.7,0,0,0-10.21,11.62A37.52,37.52,0,0,0,575.48,250a38,38,0,0,0,3.63,16.86,29.21,29.21,0,0,0,10.21,11.8A26.37,26.37,0,0,0,604.23,283,26.09,26.09,0,0,0,619,278.67Z"/><path class="cls-1" d="M750.3,275.21a45.08,45.08,0,0,1-16.95,17.22,48.31,48.31,0,0,1-47.39,0,45.08,45.08,0,0,1-17-17.22,49.68,49.68,0,0,1-6.21-24.85,50.63,50.63,0,0,1,6.21-25,44.74,44.74,0,0,1,17-17.4,48.31,48.31,0,0,1,47.39,0,44.74,44.74,0,0,1,16.95,17.4,50.63,50.63,0,0,1,6.22,25A49.69,49.69,0,0,1,750.3,275.21Zm-14.64-42a29.62,29.62,0,0,0-10.83-11.71,29.7,29.7,0,0,0-30.35,0,29.67,29.67,0,0,0-10.82,11.71,36,36,0,0,0-4,17.13,35,35,0,0,0,4,16.86,29.78,29.78,0,0,0,10.82,11.63,29.7,29.7,0,0,0,30.35,0,29.73,29.73,0,0,0,10.83-11.63,35.13,35.13,0,0,0,4-16.86A36.08,36.08,0,0,0,735.66,233.23Z"/><path class="cls-1" d="M855.38,240.07v48.27a8.38,8.38,0,0,1-2.4,6,8.12,8.12,0,0,1-6.12,2.48,7.92,7.92,0,0,1-6-2.48,8.38,8.38,0,0,1-2.4-6v-48.1q0-10.47-4.79-16.68t-15.62-6.21a26.85,26.85,0,0,0-12.87,3.1,23.85,23.85,0,0,0-9.05,8.35,21.1,21.1,0,0,0-3.28,11.44v48.1a8.38,8.38,0,0,1-2.4,6,8.12,8.12,0,0,1-6.12,2.48,8,8,0,0,1-6-2.39,8.46,8.46,0,0,1-2.3-6.13v-76a8.37,8.37,0,0,1,2.39-6,8,8,0,0,1,6-2.48,8.16,8.16,0,0,1,6.12,2.48,8.38,8.38,0,0,1,2.4,6v6.21a38.1,38.1,0,0,1,12.87-12,34.12,34.12,0,0,1,17.66-4.88Q855.38,201.73,855.38,240.07Z"/><path class="cls-1" d="M959.55,252.23a8.49,8.49,0,0,1-5.85,2.22H891.22q1.24,13,9.85,20.76a30.15,30.15,0,0,0,21,7.81q8.52,0,13.85-2.48a35.06,35.06,0,0,0,9.41-6.39,9.92,9.92,0,0,1,5.14-1.6,6.73,6.73,0,0,1,5.06,2.13,7,7,0,0,1,2,5q0,3.72-3.55,6.75a41.64,41.64,0,0,1-13.66,8.69,44.79,44.79,0,0,1-17.4,3.55q-14.37,0-25.29-6a42,42,0,0,1-16.86-16.87,49.94,49.94,0,0,1-6-24.49q0-14.91,6.12-26.18a44.4,44.4,0,0,1,16.16-17.3,41.57,41.57,0,0,1,42.86-.18,44.41,44.41,0,0,1,16,16.15,46,46,0,0,1,6.22,23.07A7.6,7.6,0,0,1,959.55,252.23Zm-58-29.29q-7.29,5.59-9.59,17.31h52.36v-1.42a21.67,21.67,0,0,0-8.43-15.44,26.66,26.66,0,0,0-17.13-6A27.39,27.39,0,0,0,901.52,222.94Z"/><path class="cls-2" d="M981.3,294.38q-2.22-2.31-2.22-6.74v-3.38a9.06,9.06,0,0,1,2.22-6.56q2.22-2.31,6.48-2.31h1.78q4.43,0,6.65,2.31a9.06,9.06,0,0,1,2.22,6.56v3.38q0,9-8.87,9.05h-1.78Q983.52,296.69,981.3,294.38Z"/><path class="cls-2" d="M1084.78,206.17q9.32,4.44,9.32,11.36a8.36,8.36,0,0,1-2,5.41,6.13,6.13,0,0,1-5,2.4,7.77,7.77,0,0,1-3.63-.71,41.31,41.31,0,0,1-3.64-2.31,19.29,19.29,0,0,0-3.38-2.49,23.13,23.13,0,0,0-6-1.77,40.37,40.37,0,0,0-7.1-.71,31.12,31.12,0,0,0-16.33,4.26,29,29,0,0,0-11,11.8,35.86,35.86,0,0,0-3.91,16.77,36.41,36.41,0,0,0,3.82,16.87,28.87,28.87,0,0,0,10.74,11.71A29.48,29.48,0,0,0,1062.5,283q9.23,0,14.91-2.84a33.73,33.73,0,0,0,3.37-2.31,22.36,22.36,0,0,1,3.11-2.13,7,7,0,0,1,3.28-.71,7.21,7.21,0,0,1,5.59,2.22,8.19,8.19,0,0,1,2,5.77q0,3.74-4.71,7.37a37.82,37.82,0,0,1-12.6,5.94,60.17,60.17,0,0,1-17,2.31,44.63,44.63,0,0,1-23.78-6.3,42.18,42.18,0,0,1-15.89-17.4,54.15,54.15,0,0,1-5.59-24.76,52.16,52.16,0,0,1,5.86-24.76A43.59,43.59,0,0,1,1037.48,208a45.54,45.54,0,0,1,24-6.3Q1075.45,201.73,1084.78,206.17Z"/><path class="cls-2" d="M1105.28,277.52q0-3.56,3.72-6a7,7,0,0,1,4.09-1.24,8.13,8.13,0,0,1,5.85,2.66,37.59,37.59,0,0,0,11.45,9.06,32.85,32.85,0,0,0,14.64,3,25,25,0,0,0,11.9-3.1q5.14-2.94,5.14-9.5a10.2,10.2,0,0,0-5.23-9.23q-5.23-3.19-15.35-5.86a111.21,111.21,0,0,1-16.51-5.59,29.45,29.45,0,0,1-11.09-8.52q-4.53-5.58-4.53-14.64a22.71,22.71,0,0,1,4.53-14A30,30,0,0,1,1126,205.1a39.9,39.9,0,0,1,16.42-3.37,47.51,47.51,0,0,1,17,3.19,31.86,31.86,0,0,1,13.76,9.77,7.83,7.83,0,0,1,2.13,5.14c0,1.9-1,3.73-2.84,5.51a6.41,6.41,0,0,1-4.44,1.59,6.67,6.67,0,0,1-5.15-2.13,24.92,24.92,0,0,0-9.14-6.56,30.22,30.22,0,0,0-12-2.31,22.37,22.37,0,0,0-11.45,2.75q-4.7,2.76-4.7,9.32a10.32,10.32,0,0,0,5.41,9.23q5.24,3,16.07,5.85a100,100,0,0,1,15.62,5.33,27.21,27.21,0,0,1,10.47,8.43q4.26,5.6,4.26,14.64a22.79,22.79,0,0,1-4.79,14.47,31,31,0,0,1-12.52,9.41,41.65,41.65,0,0,1-16.42,3.28,53.7,53.7,0,0,1-20.67-3.91,38.56,38.56,0,0,1-16.07-12.42A8.91,8.91,0,0,1,1105.28,277.52Z"/><path class="cls-2" d="M1189.94,277.52q0-3.56,3.73-6a7,7,0,0,1,4.08-1.24,8.17,8.17,0,0,1,5.86,2.66,37.56,37.56,0,0,0,11.44,9.06,32.9,32.9,0,0,0,14.65,3,24.93,24.93,0,0,0,11.89-3.1q5.15-2.94,5.15-9.5a10.21,10.21,0,0,0-5.24-9.23q-5.24-3.19-15.35-5.86a111.62,111.62,0,0,1-16.51-5.59,29.45,29.45,0,0,1-11.09-8.52q-4.53-5.58-4.53-14.64a22.71,22.71,0,0,1,4.53-14,30.08,30.08,0,0,1,12.07-9.41,39.85,39.85,0,0,1,16.41-3.37,47.51,47.51,0,0,1,17,3.19,31.86,31.86,0,0,1,13.76,9.77,7.83,7.83,0,0,1,2.13,5.14c0,1.9-.95,3.73-2.84,5.51a6.4,6.4,0,0,1-4.44,1.59,6.63,6.63,0,0,1-5.14-2.13,25,25,0,0,0-9.15-6.56,30.22,30.22,0,0,0-12-2.31,22.33,22.33,0,0,0-11.44,2.75q-4.71,2.76-4.71,9.32a10.31,10.31,0,0,0,5.42,9.23q5.23,3,16.06,5.85a100,100,0,0,1,15.62,5.33,27.21,27.21,0,0,1,10.47,8.43q4.26,5.6,4.26,14.64a22.79,22.79,0,0,1-4.79,14.47,31,31,0,0,1-12.52,9.41,41.63,41.63,0,0,1-16.41,3.28,53.71,53.71,0,0,1-20.68-3.91,38.47,38.47,0,0,1-16.06-12.42A8.85,8.85,0,0,1,1189.94,277.52Z"/><circle class="cls-3" cx="68" cy="328" r="41"/><circle class="cls-3" cx="68" cy="246" r="41"/><circle class="cls-3" cx="68" cy="164" r="41"/></svg>